# xmcd CD database file
# Generated: Wed Jan 15 17:47:25 2003 by KSCD
# 
# Track frame offsets:
#       150
#       8934
#       18035
#       29805
#       40187
#       54954
#       66514
#       77970
#       87953
#       101482
#       111151
#       122272
#       136669
#       154658
#       167908
#       177757
#       190441
#       206123
#       220043
#       232892
#       250989
#       266522
#       284473
#       298333
#       309677
#       320171
#       333255
#
# Disc length: 4582 seconds
#
# Revision: 2
# Processed by: cddbd v1.4PL0 Copyright (c) Steve Scherf et al.
# Submitted via: Kscd 1.3.3
#
DISCID=8911e41b
DTITLE=Various Artist - Oldies Goldies
DYEAR=1900
DGENRE=
TTITLE0=All Shook Up
TTITLE1=Blue Suede Shoes
TTITLE2=Have I Told U Lately
TTITLE3=Hound Dog
TTITLE4=Its Now Or Never
TTITLE5=Jailhouse Rock
TTITLE6=Little Sister
TTITLE7=Love Me Tender
TTITLE8=Wise Men Say
TTITLE9=Return To Sender
TTITLE10=Unchained Melody
TTITLE11=Amanda
TTITLE12=I Believe In You
TTITLE13=Lord Have Mercy On A Country Boy
TTITLE14=Lousiana Saturday Night
TTITLE15=Some Broken Hearts Never Mend
TTITLE16=Till The Rivers All Run Dry
TTITLE17=Tulsa Time
TTITLE18=You're My Best Friend
TTITLE19=Brown Girl In the Ring
TTITLE20=Daddy Cool
TTITLE21=Rivers of Babylon (Club Remix)
TTITLE22=The Banana Boat Song
TTITLE23=Raindrops Keep Falling On My Head
TTITLE24=Itsy Bitsy Teenie Weenie Yellow Polka Dot Bikini
TTITLE25=
TTITLE26=
EXTD=Elvis, Don Williams and others\t
EXTT0=
EXTT1=
EXTT2=
EXTT3=
EXTT4=
EXTT5=
EXTT6=
EXTT7=
EXTT8=
EXTT9=
EXTT10=
EXTT11=
EXTT12=
EXTT13=
EXTT14=
EXTT15=
EXTT16=
EXTT17=
EXTT18=
EXTT19=
EXTT20=
EXTT21=
EXTT22=
EXTT23=
EXTT24=
EXTT25=
EXTT26=
PLAYORDER=
